<svg xmlns="http://www.w3.org/2000/svg" viewBox="0 0 32 32" fill="none">
  <!-- Dark background circle -->
  <rect width="32" height="32" rx="8" fill="#0d1117"/>
  <!-- Teal glow halo -->
  <rect width="32" height="32" rx="8" fill="url(#glow)" opacity="0.15"/>
  <!-- Lightning bolt (matches app logo) -->
  <path d="M13 5a0.6 0.6 0 0 0-.44.26L6.22 13.3A1.2 1.2 0 0 0 7.16 15.2h5.3l-1.54 4.82a0.6 0.6 0 0 0 1.03.55l9.9-10.2A1.2 1.2 0 0 0 20.92 8.4h-5.3l1.54-4.82A0.6 0.6 0 0 0 16.57 3H13Z" fill="#26c8d4" transform="translate(0, 3) scale(0.95)"/>
  <defs>
    <radialGradient id="glow" cx="50%" cy="50%" r="50%">
      <stop offset="0%" stop-color="#26c8d4"/>
      <stop offset="100%" stop-color="#26c8d4" stop-opacity="0"/>
    </radialGradient>
  </defs>
</svg>
